<?xml version="1.0" standalone="no"?>
<!DOCTYPE svg PUBLIC "-//W3C//DTD SVG 20010904//EN"
 "http://www.w3.org/TR/2001/REC-SVG-20010904/DTD/svg10.dtd">
<svg version="1.0" xmlns="http://www.w3.org/2000/svg"
 width="700.000000pt" height="700.000000pt" viewBox="0 0 700.000000 700.000000"
 preserveAspectRatio="xMidYMid meet">
<metadata>
Created by potrace 1.11, written by Peter Selinger 2001-2013
</metadata>
<g transform="translate(0.000000,700.000000) scale(0.100000,-0.100000)"
fill="#000000" stroke="none">
<path d="M3298 6995 c-2 -1 -41 -5 -88 -9 -100 -7 -225 -22 -295 -36 -27 -5
-61 -12 -75 -14 -431 -79 -908 -273 -1275 -519 -66 -44 -297 -216 -305 -227
-3 -4 -36 -34 -75 -67 -38 -33 -119 -111 -180 -173 -60 -63 -126 -130 -145
-149 -20 -20 -82 -70 -140 -111 -182 -132 -414 -381 -524 -563 -62 -104 -59
-207 10 -307 l32 -47 -33 -94 c-32 -88 -100 -313 -109 -362 -2 -12 -9 -42 -15
-67 -11 -49 -13 -63 -35 -195 -34 -204 -40 -302 -40 -570 0 -195 8 -350 19
-395 2 -8 6 -42 10 -75 3 -33 8 -67 10 -75 3 -8 7 -31 9 -50 9 -69 47 -237 77
-343 312 -1106 1172 -2006 2259 -2366 69 -23 134 -43 145 -46 11 -2 65 -16
120 -30 116 -30 244 -56 350 -70 22 -2 56 -7 75 -10 121 -18 311 -27 505 -22
121 4 229 8 240 11 12 2 52 7 90 11 279 26 631 120 948 252 111 47 331 156
398 199 21 13 41 24 44 24 3 0 11 5 18 10 7 6 67 47 134 91 402 266 762 641
1030 1074 56 90 155 279 200 380 17 39 41 91 52 116 54 122 161 471 187 609
20 106 34 193 39 235 4 28 8 61 11 75 25 145 25 639 -1 820 -3 19 -7 56 -10
81 -3 25 -7 54 -9 65 -2 10 -11 60 -21 109 -31 165 -80 346 -140 512 l-36 102
21 21 c68 68 85 204 38 300 -89 180 -368 476 -603 638 -33 23 -82 67 -110 98
-119 136 -333 333 -492 453 l-71 54 39 26 c164 111 156 355 -15 460 -50 31
-270 100 -401 126 -170 33 -209 37 -395 40 -206 3 -300 -6 -489 -46 -51 -11
-101 -17 -110 -15 -24 8 -217 37 -341 51 -54 7 -526 16 -532 10z"/>
</g>
</svg>
